<?xml version="1.0" encoding="UTF-8" standalone="no"?>
<!-- Created with Inkscape (http://www.inkscape.org/) -->

<svg
   version="1.1"
   id="svg905"
   width="328.5994"
   height="132.45406"
   viewBox="0 0 328.5994 132.45406"
   sodipodi:docname="Bola.svg"
   inkscape:version="1.1 (c68e22c387, 2021-05-23)"
   xmlns:inkscape="http://www.inkscape.org/namespaces/inkscape"
   xmlns:sodipodi="http://sodipodi.sourceforge.net/DTD/sodipodi-0.dtd"
   xmlns="http://www.w3.org/2000/svg"
   xmlns:svg="http://www.w3.org/2000/svg">
  <defs
     id="defs909">
    <rect
       x="-88.5"
       y="-7.5"
       width="82.5"
       height="154.5"
       id="rect28656" />
  </defs>
  <sodipodi:namedview
     id="namedview907"
     pagecolor="#ffffff"
     bordercolor="#999999"
     borderopacity="1"
     inkscape:pageshadow="0"
     inkscape:pageopacity="0"
     inkscape:pagecheckerboard="0"
     showgrid="false"
     inkscape:zoom="1"
     inkscape:cx="210"
     inkscape:cy="68.5"
     inkscape:window-width="1366"
     inkscape:window-height="705"
     inkscape:window-x="-8"
     inkscape:window-y="-8"
     inkscape:window-maximized="1"
     inkscape:current-layer="g911"
     inkscape:snap-nodes="false" />
  <g
     inkscape:groupmode="layer"
     inkscape:label="Image"
     id="g911"
     transform="translate(-113.15835,-1144.2106)">
    <path
       style="fill:none;stroke:#000000;stroke-width:1px;stroke-linecap:butt;stroke-linejoin:miter;stroke-opacity:1"
       d="M 394.66666,118.66666 376.1808,118.32253"
       id="path4551" />
    <path
       style="fill:#ffffff;fill-opacity:1;stroke-width:0.220971;stroke-linecap:round;stroke-linejoin:round;paint-order:fill markers stroke"
       d="m 350.82518,1231.5228 c -7.24401,-9.2223 -11.47107,-20.1442 -12.30231,-31.7867 -0.0672,-0.9406 -0.15436,-3.0417 -0.15544,-3.7454 l -5.6e-4,-0.3646 h 0.44195 0.44194 l 0.004,0.8949 c 0.002,0.4922 0.0173,1.0043 0.0331,1.1378 l 0.0288,0.2429 0.21794,-0.3533 c 0.11986,-0.1944 0.4542,-0.7064 0.74297,-1.1379 l 0.52504,-0.7844 h 0.53022 c 0.41252,0 0.5228,0.012 0.49681,0.055 -0.0184,0.03 -0.13558,0.1945 -0.26048,0.3646 -0.3645,0.4966 -1.06777,1.5665 -1.65371,2.5158 l -0.54352,0.8807 0.0303,0.4673 c 0.0892,1.3756 0.32524,3.35 0.60047,5.0227 0.81856,4.9747 2.22754,9.6285 4.33416,14.3155 0.3917,0.8715 1.55064,3.177 2.03266,4.0437 1.37006,2.4634 3.12373,5.1241 4.80434,7.289 l 0.49507,0.6378 v 0.4781 0.4782 h -0.16606 c -0.1613,0 -0.18073,-0.019 -0.67808,-0.6519 z"
       id="path24177" />
    <path
       style="fill:#ffffff;fill-opacity:1;stroke-width:0.110485;stroke-linecap:round;stroke-linejoin:round;paint-order:fill markers stroke"
       d=""
       id="path24255"
       transform="translate(237.36109,1143.1897)" />
    <path
       style="fill:#ffffff;fill-opacity:1;stroke:#000000;stroke-width:0.220971;stroke-linecap:round;stroke-linejoin:round;stroke-opacity:0.481132;paint-order:fill markers stroke"
       d="m 101.58794,83.183989 c -0.54387,-0.995277 -1.62671,-3.202088 -2.05443,-4.186903 -2.381637,-5.483663 -3.759275,-11.06158 -4.205828,-17.028975 -0.05188,-0.693273 -0.135794,-2.715071 -0.154613,-3.725154 -5.04e-4,-0.02704 0.106773,-0.06181 0.238392,-0.07728 0.309944,-0.03643 0.379655,-0.06539 0.420022,-0.174514 0.01827,-0.04938 0.04619,0.425708 0.06204,1.055759 0.212698,8.451985 2.142382,16.518791 5.710587,23.8724 0.25063,0.51652 0.43233,0.938904 0.40377,0.938632 -0.0286,-2.65e-4 -0.21753,-0.303554 -0.41994,-0.673961 z"
       id="path26710"
       transform="translate(242.47942,1137.8466)" />
    <text
       xml:space="preserve"
       transform="translate(242.47942,1137.8466)"
       id="text28654"
       style="font-style:normal;font-weight:normal;font-size:40px;line-height:1.25;font-family:sans-serif;white-space:pre;shape-inside:url(#rect28656);fill:#000000;fill-opacity:1;stroke:none" />
    <g
       id="g32220">
      <g
         id="g26970">
        <g
           id="g26390"
           transform="matrix(0.89674221,0,0,0.89674221,34.230277,123.85548)">
          <path
             style="fill:#ffffff;fill-opacity:1;stroke:#000000;stroke-width:1px;stroke-linecap:butt;stroke-linejoin:miter;stroke-opacity:0.481132"
             d="m 351.14804,1224.6756 c -38.85993,28.598 -43.82243,43.3289 -54.75,60.5 22.61179,-19.713 44.69449,-42.2831 70.5,-44.75 z"
             id="path21469"
             sodipodi:nodetypes="cccc" />
          <path
             style="fill:#ffffff;fill-opacity:1;stroke:#000000;stroke-width:1px;stroke-linecap:butt;stroke-linejoin:miter;stroke-opacity:0.481132"
             d="m 348.5154,1163.2132 c -47.98676,10.1105 -73.69174,26.0946 -89.57945,33.4064 25.65601,-8.7404 40.77586,-14.0096 85.7378,-25.7634 z"
             id="path20675"
             sodipodi:nodetypes="cccc" />
          <path
             style="fill:#ffffff;fill-opacity:1;stroke:#000000;stroke-width:1px;stroke-linecap:butt;stroke-linejoin:miter;stroke-opacity:0.481132"
             d="m 341.3449,1177.6324 -98.67173,41.4752 96.75,-25.25 z"
             id="path21223" />
          <path
             style="fill:#ffffff;fill-opacity:1;stroke:#000000;stroke-width:1px;stroke-linecap:butt;stroke-linejoin:miter;stroke-opacity:0.481132"
             d="m 338.69324,1196.901 c -44.64744,19.6404 -67.321,46.4678 -87.15091,64.7003 30.84897,-18.4816 65.19977,-43.033 89.62579,-50.3814 z"
             id="path21467"
             sodipodi:nodetypes="cccc" />
        </g>
        <g
           id="g18996"
           transform="matrix(3.1791402,0,0,3.1791402,298.24794,1055.1665)">
          <g
             id="g18708"
             style="fill:#ffffff;fill-opacity:1">
            <path
               style="fill:#ffffff;fill-opacity:1;stroke-width:5;stroke-linecap:round;stroke-linejoin:round;paint-order:fill markers stroke"
               id="path18455"
               sodipodi:type="arc"
               sodipodi:cx="28.731606"
               sodipodi:cy="44.311249"
               sodipodi:rx="16.307358"
               sodipodi:ry="16.097841"
               sodipodi:start="5.7655381"
               sodipodi:end="5.7635701"
               sodipodi:arc-type="slice"
               d="M 42.902468,36.345442 A 16.307358,16.097841 0 0 1 36.80806,58.296124 16.307358,16.097841 0 0 1 14.56869,52.290817 16.307358,16.097841 0 0 1 20.641215,30.334226 16.307358,16.097841 0 0 1 42.88656,36.317927 l -14.154954,7.993322 z" />
            <rect
               style="fill:#ffffff;fill-opacity:1;stroke-width:1.32292;stroke-linecap:round;stroke-linejoin:round;paint-order:fill markers stroke"
               id="rect18624"
               width="12.056826"
               height="6.4228373"
               x="30.829733"
               y="36.317928" />
          </g>
          <g
             id="g15697">
            <g
               id="g14457"
               transform="translate(0.181714,0.16661578)">
              <g
                 id="g14426">
                <g
                   id="g5185"
                   transform="matrix(0.05138406,0,0,0.05138406,-2.2672961,26.535247)">
                  <path
                     style="fill:none;stroke:#000000;stroke-width:5;stroke-linecap:butt;stroke-linejoin:miter;stroke-miterlimit:4;stroke-dasharray:none;stroke-opacity:1"
                     d="m 879.99997,247.99999 14.66667,-13.66666"
                     id="path1250" />
                  <g
                     id="g5141">
                    <g
                       id="g4891">
                      <path
                         style="fill:none;stroke:#000000;stroke-width:5;stroke-linecap:butt;stroke-linejoin:miter;stroke-miterlimit:4;stroke-dasharray:none;stroke-opacity:1"
                         d="m 723.13805,77.495091 16.02422,-16.68391"
                         id="path1248" />
                      <g
                         id="g4678">
                        <path
                           style="fill:none;stroke:#000000;stroke-width:4.5736;stroke-linecap:butt;stroke-linejoin:miter;stroke-miterlimit:4;stroke-dasharray:none;stroke-opacity:1"
                           d="m 883.88429,379.83467 c 10.34314,7.35279 15.62072,25.3448 19.67268,45.911"
                           id="path1252"
                           sodipodi:nodetypes="cc" />
                        <g
                           id="g4661">
                          <path
                             style="fill:none;fill-opacity:1;stroke:#000000;stroke-width:5;stroke-linecap:butt;stroke-linejoin:miter;stroke-miterlimit:4;stroke-dasharray:none;stroke-opacity:1"
                             d="m 285.1036,362.85033 c 0,0 11.04504,-18.92597 17.17002,-25.2252 5.08327,-5.22788 20.39304,-14.95847 20.39304,-14.95847"
                             id="path1038"
                             sodipodi:nodetypes="csc" />
                          <g
                             id="g4646">
                            <g
                               id="g4417">
                              <path
                                 style="fill:none;stroke:#000000;stroke-width:5;stroke-linecap:butt;stroke-linejoin:miter;stroke-miterlimit:4;stroke-dasharray:none;stroke-opacity:1"
                                 d="M 605.33332,434.66665 C 555.54179,420.90262 519.2022,393.68666 478.66665,370.66666 l -1.33333,-134.66667 c 38.87463,-35.87757 79.98359,-56.11487 121.33333,-74.66666 l 118.66666,61.33333 c 8.7409,48.963 4.62471,94.71173 4,141.33333 z"
                                 id="path1024"
                                 sodipodi:nodetypes="ccccccc" />
                              <path
                                 style="fill:none;stroke:#000000;stroke-width:5;stroke-linecap:butt;stroke-linejoin:miter;stroke-miterlimit:4;stroke-dasharray:none;stroke-opacity:1"
                                 d="m 378.66666,209.33333 98.66666,26.66666 1.33333,134.66667 c -34.42444,14.82815 -65.118,32.14354 -91.99999,51.99999 -25.8995,-25.34255 -48.13993,-57.08845 -64,-99.99999 6.91829,-37.77778 26.46131,-75.55555 56,-113.33333 z"
                                 id="path1026"
                                 sodipodi:nodetypes="cccccc" />
                              <path
                                 style="fill:none;stroke:#000000;stroke-width:5;stroke-linecap:butt;stroke-linejoin:miter;stroke-miterlimit:4;stroke-dasharray:none;stroke-opacity:1"
                                 d="m 378.66666,209.33333 c 4.33846,-42.16072 9.16927,-78.4132 16,-90.66667 41.04291,-34.094626 77.20076,-51.091557 113.33333,-67.999995 l 3.99999,-13.333333"
                                 id="path1028"
                                 sodipodi:nodetypes="cccc" />
                              <path
                                 style="fill:none;stroke:#000000;stroke-width:5;stroke-linecap:butt;stroke-linejoin:miter;stroke-miterlimit:4;stroke-dasharray:none;stroke-opacity:1"
                                 d="m 507.99999,50.666665 c 62.7889,1.13111 77.73223,11.831331 105.33333,20 37.90846,-4.258283 74.4096,-1.479929 109.80473,6.828426 37.8054,31.006209 60.2982,62.482029 75.52859,98.504899 l -81.33333,46.66667 -118.66666,-61.33333 13.33333,-91.999999"
                                 id="path1030"
                                 sodipodi:nodetypes="ccccccc" />
                              <path
                                 style="fill:none;stroke:#000000;stroke-width:5;stroke-linecap:butt;stroke-linejoin:miter;stroke-miterlimit:4;stroke-dasharray:none;stroke-opacity:1"
                                 d="m 798.66664,175.99999 c 33.91708,21.08315 64.83499,43.45167 81.33333,72 4.95096,39.02576 12.61595,74.31974 4,132 -23.89047,23.05317 -51.31254,40.80895 -78.66666,58.66666 l -84,-74.66666 -115.99999,70.66666 16,121.33333 122.66666,-2.66666 c 24.16615,-33.7044 44.70939,-72.23933 61.33333,-116"
                                 id="path1032"
                                 sodipodi:nodetypes="ccccccccc" />
                              <path
                                 style="fill:none;stroke:#000000;stroke-width:5;stroke-linecap:butt;stroke-linejoin:miter;stroke-miterlimit:4;stroke-dasharray:none;stroke-opacity:1"
                                 d="m 765.33331,609.33332 -21.33333,-56"
                                 id="path1034" />
                              <path
                                 style="fill:none;stroke:#000000;stroke-width:5;stroke-linecap:butt;stroke-linejoin:miter;stroke-miterlimit:4;stroke-dasharray:none;stroke-opacity:1"
                                 d="m 621.33332,555.99998 -100,45.33334 c -44.10036,-13.77599 -83.41984,-32.93045 -113.33333,-62.66667 -15.55556,11.72436 -31.11111,13.09229 -46.66667,10.66667"
                                 id="path1036"
                                 sodipodi:nodetypes="cccc" />
                              <path
                                 style="fill:none;stroke:#000000;stroke-width:5;stroke-linecap:round;stroke-linejoin:round;stroke-miterlimit:4;stroke-dasharray:none;stroke-opacity:1;paint-order:fill markers stroke"
                                 id="path1276"
                                 sodipodi:type="arc"
                                 sodipodi:cx="599.375"
                                 sodipodi:cy="342.99969"
                                 sodipodi:rx="315.09521"
                                 sodipodi:ry="315.06357"
                                 sodipodi:start="0"
                                 sodipodi:end="6.2722595"
                                 sodipodi:open="true"
                                 sodipodi:arc-type="arc"
                                 d="M 914.47021,342.99969 A 315.09521,315.06357 0 0 1 600.23567,658.06209 315.09521,315.06357 0 0 1 284.28449,344.72085 315.09521,315.06357 0 0 1 596.79303,27.946705 315.09521,315.06357 0 0 1 914.45141,339.55744" />
                              <path
                                 style="fill:none;stroke:#000000;stroke-width:5;stroke-linecap:butt;stroke-linejoin:miter;stroke-miterlimit:4;stroke-dasharray:none;stroke-opacity:1"
                                 d="m 386.66666,422.66665 c -2.49996,34.54764 -0.79802,70.89609 21.33333,116"
                                 id="path3190"
                                 sodipodi:nodetypes="cc" />
                            </g>
                            <path
                               style="fill:none;stroke:#000000;stroke-width:5;stroke-linecap:butt;stroke-linejoin:miter;stroke-miterlimit:4;stroke-dasharray:none;stroke-opacity:1"
                               d="m 395.79303,118.98848 -18.48586,-0.34413"
                               id="path4553"
                               sodipodi:nodetypes="cc" />
                          </g>
                        </g>
                      </g>
                    </g>
                    <path
                       style="fill:none;stroke:#000000;stroke-width:5;stroke-linecap:butt;stroke-linejoin:miter;stroke-miterlimit:4;stroke-dasharray:none;stroke-opacity:1"
                       d="m 521.33332,601.33332 c 1.95202,13.30592 8.8126,29.41672 29.33333,53.33333"
                       id="path4945"
                       sodipodi:nodetypes="cc" />
                  </g>
                </g>
                <path
                   style="fill:#000000;fill-opacity:1;stroke:#000000;stroke-width:0.968908;stroke-linecap:round;stroke-linejoin:round;stroke-miterlimit:4;stroke-dasharray:none;stroke-opacity:1;paint-order:fill markers stroke"
                   d="m 16.711057,46.860484 c -0.480749,-0.60812 -1.171476,-1.695741 -1.53495,-2.416931 l -0.660861,-1.31126 0.295957,-1.014116 c 0.307639,-1.054149 1.265907,-2.902989 2.041876,-3.939506 l 0.449186,-0.600012 2.325377,0.613886 2.325376,0.613886 0.0529,3.300061 0.0529,3.300059 -1.215586,0.60252 c -0.668573,0.331381 -1.675148,0.907288 -2.236834,1.279797 l -1.021248,0.677283 z"
                   id="path5263"
                   sodipodi:nodetypes="cscssccccccccc" />
                <path
                   style="fill:#000000;fill-opacity:1;stroke:#000000;stroke-width:0.685119;stroke-linecap:round;stroke-linejoin:round;stroke-miterlimit:4;stroke-dasharray:none;stroke-opacity:1;paint-order:fill markers stroke"
                   d="m 31.714695,36.258835 c -1.507266,-0.785879 -2.797717,-1.449019 -2.86767,-1.473644 -0.119319,-0.042 -0.05228,-0.696528 0.357315,-3.488355 l 0.145746,-0.993425 1.661889,0.0048 c 0.914039,0.0026 2.155176,0.0914 2.758082,0.197274 l 1.096193,0.192494 1.164705,1.217172 c 1.00284,1.048014 2.074854,2.564635 2.364992,3.345849 0.06781,0.182586 -0.309959,0.459085 -1.825302,1.335986 -1.050944,0.608162 -1.956857,1.102372 -2.013138,1.098244 -0.05628,-0.0041 -1.335546,-0.650497 -2.842812,-1.436376 z"
                   id="path5450"
                   sodipodi:nodetypes="cssccscsssccc" />
                <path
                   style="fill:#000000;fill-opacity:1;stroke:#000000;stroke-width:0.04282;stroke-linecap:round;stroke-linejoin:round;stroke-miterlimit:4;stroke-dasharray:none;stroke-opacity:1;paint-order:fill markers stroke"
                   d="m 17.697552,32.493704 -0.269243,0.03844 0.264583,-0.317019 c 0.03437,-0.04118 -0.06878,0.161168 -0.04074,0.135938 0.605931,-0.545563 1.004246,-0.868221 1.576208,-1.276821 1.308889,-0.935047 2.843034,-1.704123 4.387429,-2.199444 l 0.173936,-0.05579 -0.0051,0.02318 c -0.0028,0.01275 -0.01757,0.06324 -0.03283,0.112205 l -0.02774,0.08903 -0.239591,0.112483 c -0.999485,0.469236 -1.725899,0.833703 -2.322111,1.165084 -1.113172,0.618713 -2.122863,1.300669 -3.072148,2.074963 l -0.127595,0.104073 -0.09507,-0.0018 c -0.05229,-9.71e-4 -0.128791,-0.003 -0.170005,-0.0046 z"
                   id="path5489"
                   sodipodi:nodetypes="ccscscccccssscccc" />
                <path
                   style="fill:#000000;fill-opacity:1;stroke:#000000;stroke-width:0.968908;stroke-linecap:round;stroke-linejoin:round;stroke-miterlimit:4;stroke-dasharray:none;stroke-opacity:1;paint-order:fill markers stroke"
                   d="m 43.909567,46.359397 c -0.347135,-0.455354 -0.05603,-1.55119 -0.103876,-3.256427 -0.04508,-1.606574 -0.161982,-3.413774 -0.209948,-3.666519 -0.0929,-0.489527 -0.225796,0.131365 -0.102392,0.08833 0.233602,-0.08148 0.691958,1.270158 0.942543,3.199424 0.150416,1.158053 -0.195434,3.857345 -0.421755,3.856111 -0.07501,-5.13e-4 0.503567,0.57681 -0.104572,-0.220915 z"
                   id="path5528"
                   sodipodi:nodetypes="sssssss" />
                <path
                   style="fill:#000000;fill-opacity:1;stroke:#000000;stroke-width:0.968908;stroke-linecap:round;stroke-linejoin:round;stroke-miterlimit:4;stroke-dasharray:none;stroke-opacity:1;paint-order:fill markers stroke"
                   d="m 29.525014,52.247162 c -0.181534,-1.439195 -0.366666,-2.747521 -0.411405,-2.907392 -0.05642,-0.201621 0.770787,-0.810147 2.700047,-1.986261 1.529764,-0.932575 2.84416,-1.695587 2.920878,-1.695587 0.263095,0 3.980577,3.382079 3.980577,3.621441 0,0.363917 -2.070864,4.34909 -2.567207,4.940331 -0.433049,0.515849 -0.458918,0.520325 -3.364617,0.582017 l -2.928212,0.06217 z"
                   id="path5567"
                   sodipodi:nodetypes="ssssssscs" />
                <path
                   style="fill:#000000;fill-opacity:1;stroke:#000000;stroke-width:0.242227;stroke-linecap:round;stroke-linejoin:round;stroke-miterlimit:4;stroke-dasharray:none;stroke-opacity:1;paint-order:fill markers stroke"
                   d="m 25.005076,59.805824 c -1.291946,-0.29998 -2.337796,-0.67366 -3.536511,-1.26359 -1.608841,-0.791767 -2.941084,-1.739464 -4.211273,-2.995701 l -0.536372,-0.530479 0.479142,-0.06313 c 0.570602,-0.07519 0.725902,-0.121385 1.153007,-0.342979 l 0.324124,-0.168164 0.451002,0.380735 c 1.256049,1.060351 2.784232,1.88952 4.673245,2.535629 l 0.588842,0.201405 0.03292,0.177521 c 0.08147,0.439391 0.443273,1.156676 0.915262,1.814531 0.147377,0.205413 0.241659,0.371954 0.209514,0.370093 -0.03214,-0.0018 -0.276449,-0.054 -0.542898,-0.115871 z"
                   id="path5643"
                   sodipodi:nodetypes="sssccscsscsscss" />
              </g>
            </g>
            <path
               style="fill:#000000;fill-opacity:1;stroke:none;stroke-width:1.00157;stroke-linecap:round;stroke-linejoin:round;stroke-opacity:1;paint-order:fill markers stroke"
               id="path13459"
               sodipodi:type="arc"
               sodipodi:cx="44.028072"
               sodipodi:cy="47.251942"
               sodipodi:rx="0.4602237"
               sodipodi:ry="3.2836812"
               sodipodi:start="0"
               sodipodi:end="0.33700585"
               sodipodi:arc-type="slice"
               d="m 44.488296,47.251942 a 0.4602237,3.2836812 0 0 1 -0.02589,1.085791 l -0.434336,-1.085791 z" />
          </g>
        </g>
        <g
           id="g26397"
           transform="matrix(0.89674221,0,0,0.89674221,34.230277,123.85548)">
          <path
             style="fill:#ffffff;fill-opacity:1;stroke-width:1.76777;stroke-linecap:round;stroke-linejoin:round;paint-order:fill markers stroke"
             d="m 390.44971,1253.0884 c -11.14973,-1.3373 -22.04877,-5.7795 -30.05204,-12.2483 -1.92854,-1.5588 -7.95594,-7.3667 -7.95333,-7.6637 8.8e-4,-0.1013 1.2339,-0.1914 2.74003,-0.2002 2.13815,-0.013 3.07423,-0.1918 4.27036,-0.8177 1.18237,-0.6186 1.47288,-0.9376 1.27316,-1.3981 -0.14232,-0.3281 -0.86251,-2.3467 -1.60042,-4.4857 -1.49911,-4.3454 -2.08856,-7.895 -2.08856,-12.5767 0,-1.736 -0.12274,-3.1564 -0.27277,-3.1564 -0.15002,0 -1.56962,-1.7103 -3.15465,-3.8007 -2.9262,-3.8591 -5.22996,-7.5282 -7.22143,-11.5012 -0.60622,-1.2094 -1.15858,-2.2609 -1.22747,-2.3367 -0.0689,-0.076 -0.67581,0.2823 -1.34872,0.7955 -1.80946,1.3802 -2.0257,1.1125 -0.32567,-0.4032 1.25181,-1.116 1.61121,-1.7705 2.37235,-4.3204 1.45366,-4.87 4.97903,-11.6899 8.29371,-16.0443 l 1.5825,-2.0789 0.65324,-5.1232 c 0.6074,-4.7636 1.33145,-8.6036 1.89991,-10.076 0.19869,-0.5147 0.037,-0.6188 -0.9613,-0.6188 -0.97159,0 -1.53024,0.3352 -2.93332,1.7597 -0.95324,0.9677 -1.81403,1.6787 -1.91286,1.5799 -0.23022,-0.2302 6.01816,-6.5215 6.47702,-6.5215 0.18936,0 -0.27714,0.6364 -1.03665,1.4142 l -1.38095,1.4142 1.04403,-7e-4 c 0.72586,-4e-4 1.90598,-0.6477 3.87245,-2.1239 3.87001,-2.9053 7.98725,-5.3958 13.43135,-8.1246 2.91779,-1.4625 4.63568,-2.5283 4.71087,-2.9226 0.10612,-0.5564 -0.14923,-0.5251 -2.4712,0.3035 -3.77302,1.3464 -8.55465,3.7033 -11.73352,5.7836 -1.529,1.0006 -2.85955,1.7397 -2.95678,1.6425 -0.29831,-0.2983 5.19958,-3.7272 8.56522,-5.3419 4.35347,-2.0887 9.47009,-3.8087 14.31891,-4.8135 3.52413,-0.7302 5.00802,-0.8398 11.13694,-0.8219 5.93242,0.017 7.66885,0.1482 10.78337,0.8133 4.84359,1.0343 10.35206,2.9217 14.31892,4.9061 3.51303,1.7574 9.19742,5.3328 8.91978,5.6105 -0.0972,0.097 -1.50756,-0.6904 -3.13407,-1.7503 -1.62651,-1.0599 -3.55511,-2.212 -4.28579,-2.5601 l -1.3285,-0.633 -1.22035,1.1828 -1.22034,1.1828 3.6793,3.8396 c 3.82224,3.9888 7.24968,8.7173 8.85836,12.2211 0.82384,1.7943 1.27154,2.2602 3.76444,3.9174 1.55617,1.0344 2.74739,1.9628 2.64715,2.0631 -0.10024,0.1002 -1.41873,-0.6521 -2.92998,-1.6719 -2.63513,-1.7782 -2.78481,-1.8325 -3.65267,-1.3243 -0.49772,0.2915 -3.7467,2.1724 -7.21996,4.1798 l -6.31501,3.6498 0.25243,1.7985 c 0.13884,0.9892 0.31596,6.7305 0.3936,12.7586 l 0.14116,10.9602 1.502,1.2201 c 2.45773,1.9964 7.31378,6.3498 10.39596,9.3199 2.6162,2.5211 2.95499,2.7405 3.6542,2.3663 1.08084,-0.5785 1.26532,-0.2151 0.23392,0.4607 -0.50943,0.3338 -0.94482,1.054 -1.08322,1.7917 -0.45406,2.4203 -7.99702,16.5223 -9.95494,18.6112 l -0.83367,0.8895 1.84298,4.8634 c 1.76706,4.663 1.87937,4.8553 2.72685,4.6699 l 0.88388,-0.1935 -0.88388,0.7046 c -1.39125,1.1091 -8.75302,4.8028 -11.57957,5.8099 -6.37437,2.2713 -13.17268,3.4144 -19.88668,3.3437 -2.43068,-0.026 -4.89672,-0.1037 -5.48008,-0.1737 z m 11.4742,-0.6536 c 6.34627,-0.4299 14.09818,-2.7189 20.58636,-6.0788 3.70969,-1.9211 3.76986,-1.972 3.41141,-2.8867 -0.20068,-0.5121 -1.0554,-2.7381 -1.89938,-4.9467 -0.84398,-2.2087 -1.59871,-4.0799 -1.67718,-4.1584 -0.0785,-0.078 -1.32083,0.011 -2.76079,0.1982 -1.43997,0.1875 -6.59559,0.4067 -11.45695,0.4872 l -8.83884,0.1463 -8.39689,3.7982 c -7.35684,3.3278 -8.39689,3.897 -8.39689,4.5959 0,1.1628 2.24102,5.4208 3.79081,7.2027 l 1.33675,1.5369 4.24212,0.2566 c 2.33317,0.1411 4.87852,0.2103 5.65634,0.1538 0.77781,-0.056 2.75923,-0.1938 4.40313,-0.3052 z m -15.54007,-0.6833 c 0,-0.086 -0.1591,-0.2543 -0.35355,-0.3745 -0.19445,-0.1201 -0.35355,-0.05 -0.35355,0.1559 0,0.206 0.1591,0.3745 0.35355,0.3745 0.19445,0 0.35355,-0.07 0.35355,-0.1559 z m 4.22207,-13.1462 c 4.58099,-2.0659 8.44799,-3.8633 8.59333,-3.9942 0.22869,-0.2061 -1.26769,-13.0649 -2.18715,-18.7946 -0.17413,-1.0852 -0.29001,-2.2515 -0.25751,-2.5919 0.0447,-0.4687 -0.62719,-0.8709 -2.76934,-1.6578 -3.94925,-1.4507 -7.71069,-3.3665 -13.82875,-7.0435 -2.89472,-1.7398 -5.46598,-3.1656 -5.7139,-3.1686 -0.98458,-0.012 -8.29768,3.9528 -13.59743,7.3716 l -3.08805,1.9921 -9e-4,4.0659 c -0.001,6.7558 2.12513,14.5755 4.69595,17.2671 1.60606,1.6816 7.3973,5.4708 10.69576,6.9982 3.22529,1.4936 7.87102,3.2694 8.61915,3.2946 0.28037,0.01 4.25784,-1.673 8.83884,-3.7389 z m 11.65596,-29.7755 c 3.82431,-2.4881 12.07559,-7.4759 15.23467,-9.2091 1.075,-0.5898 1.17736,-18.317 0.14122,-24.4583 -0.20501,-1.2152 -0.38425,-1.3468 -4.8927,-3.5937 -2.57394,-1.2828 -7.41506,-3.7622 -10.75805,-5.5097 l -6.07816,-3.1773 -5.24659,2.5986 c -5.31063,2.6304 -10.16944,5.6623 -14.17356,8.8443 l -2.1966,1.7456 0.21224,5.2711 c 0.11673,2.8991 0.21679,8.4676 0.22234,12.3744 l 0.0101,7.1032 5.34789,3.1496 c 7.91878,4.6636 14.86777,7.9499 16.8739,7.9799 0.27415,0 2.66064,-1.3993 5.3033,-3.1186 z m -26.18533,-34.7409 c 2.88301,-2.5425 8.76256,-6.243 14.33313,-9.0209 l 5.40406,-2.6949 1.12235,-7.9794 c 0.61729,-4.3886 1.00138,-8.0924 0.85352,-8.2306 -0.14785,-0.1382 -1.78027,-0.7292 -3.62758,-1.3134 -3.45048,-1.0911 -6.5372,-1.6351 -11.49665,-2.026 l -2.83458,-0.2234 -4.05971,1.9534 c -7.30468,3.5147 -16.10697,9.2719 -16.92774,11.0718 -0.69621,1.5266 -2.84406,14.817 -2.44427,15.1244 0.13293,0.1022 17.30948,4.7097 17.73293,4.7567 0.16461,0.018 1.03966,-0.6197 1.94454,-1.4177 z m 43.90982,-28.4397 c 1.42413,-1.4694 1.46773,-1.4184 -2.54847,-2.9815 -4.08757,-1.5909 -8.19788,-2.7018 -12.48187,-3.3736 -7.24143,-1.1355 -22.33227,-0.1234 -24.45746,1.6404 -1.14822,0.9529 -0.48409,1.2645 3.14524,1.4754 4.04543,0.2352 7.20387,0.8325 11.4021,2.1564 2.54197,0.8016 3.58039,0.9093 10.25305,1.0634 4.30533,0.1 8.46438,0.3827 9.89949,0.6742 3.51975,0.7149 3.45136,0.7242 4.78792,-0.6547 z"
             id="path24060" />
          <g
             id="g25892">
            <path
               style="fill:#ffffff;fill-opacity:1;stroke-width:0.3125;stroke-linecap:round;stroke-linejoin:round;paint-order:fill markers stroke"
               d="m 102.34375,40.275317 c 0,-0.115473 0.67034,-2.822213 0.87626,-3.538244 3.79213,-13.185764 11.93118,-24.436054 23.21749,-32.0926474 2.2457,-1.5234737 4.28545,-2.7081306 6.8125,-3.95659498 2.58946,-1.27929574 4.96144,-2.24982762 7.56297,-3.09450132 1.69494,-0.5503178 1.65578,-0.5343442 1.65578,-0.6753227 0,-0.1782414 0.054,-0.1967042 0.31063,-0.1061679 0.2204,0.077762 0.30995,0.064388 1.29122,-0.1928341 0.57992,-0.1520148 1.63096,-0.403426 2.33565,-0.5586914 0.70469,-0.1552654 1.34728,-0.2968615 1.42799,-0.314658 0.0964,-0.021244 0.13825,-0.00687 0.12201,0.041839 -0.0136,0.040808 -0.4312,0.1656863 -0.92799,0.2775071 -4.83882,1.0891476 -9.97644,2.8899674 -14.01573,4.912745 -2.65436,1.3292354 -6.88826,3.9209216 -7.77816,4.7612204 -0.21629,0.2042375 -0.26294,0.3547831 -0.10993,0.3547831 0.16509,0 1.24847,-0.5974388 2.38937,-1.3176438 3.12338,-1.97166 5.59756,-3.3035122 8.64244,-4.6522187 2.305,-1.02098506 5.19665,-2.082866 5.74536,-2.109836 0.2644,-0.012995 0.28729,-0.00205 0.30449,0.1456149 0.0107,0.091856 -0.0377,0.2312747 -0.11403,0.3282749 -0.29418,0.3739847 -2.17848,1.50708464 -4.13169,2.48453445 -5.41574,2.71021175 -9.51249,5.16619365 -13.631,8.17171795 -2.27346,1.6590825 -2.96281,2.0694465 -3.49877,2.0827835 -0.29457,0.0073 -0.30677,0.01261 -0.11186,0.04847 l 0.21875,0.04024 -0.2933,0.07653 c -0.16132,0.0421 -0.53691,0.07654 -0.83466,0.07654 h -0.54136 l 0.9091,-0.93965 c 0.92042,-0.9513446 1.47897,-1.6255808 1.47897,-1.7852927 0,-0.3539375 -0.81389,0.3458025 -3.34788,2.8783277 -2.05741,2.056214 -3.21462,3.320887 -3.21462,3.513137 0,0.247484 0.43533,-0.05975 1.54687,-1.091688 0.38672,-0.359025 0.70313,-0.634229 0.70313,-0.611565 0,0.02266 -0.32715,0.398793 -0.72699,0.835844 -4.12613,4.51008 -7.65735,10.016983 -10.15112,15.830588 -1.22469,2.85506 -2.44306,6.572251 -3.09688,9.448424 l -0.18115,0.796875 h -0.42193 c -0.26401,0 -0.42193,-0.02561 -0.42193,-0.06843 z M 121.53922,9.484375 c 0.0777,-0.099129 0.0755,-0.1013394 -0.0236,-0.023597 -0.1041,0.081648 -0.13721,0.1329725 -0.0858,0.1329725 0.013,0 0.0622,-0.049219 0.10937,-0.109375 z"
               id="path24099"
               transform="translate(237.36109,1143.1897)" />
            <path
               style="fill:#ffffff;fill-opacity:1;stroke-width:1.25;stroke-linecap:round;stroke-linejoin:round;paint-order:fill markers stroke"
               d="m 190.92278,100.15453 c -0.17285,-0.10683 0.52384,-0.774323 1.77114,-1.696925 9.65583,-7.14217 17.08706,-17.504605 20.57076,-28.68476 0.65241,-2.093773 0.6753,-2.31836 0.38211,-3.75 -0.401,-1.958138 -1.41774,-4.54764 -2.19466,-5.589555 l -0.609,-0.81671 -2.17157,1.836017 c -4.0571,3.43021 -10.54656,7.951793 -10.54656,7.34841 0,-0.184347 1.15062,-1.11354 2.55694,-2.064872 2.91171,-1.969683 6.8262,-4.97571 8.54484,-6.561768 1.12764,-1.040657 1.17476,-1.142267 1.44899,-3.125 0.48667,-3.518672 0.36123,-11.480977 -0.25679,-16.299367 -0.29981,-2.3375 -0.65651,-4.653983 -0.79267,-5.147735 -0.49633,-1.799898 -3.80675,-5.510185 -7.4334,-8.33129 -0.8564,-0.666177 -1.4955,-1.310884 -1.42023,-1.432681 0.17134,-0.27722 0.37415,-0.158426 2.22732,1.304602 1.89658,1.497301 5.33095,5.028189 6.24413,6.419604 0.38352,0.584375 0.77144,1.0625 0.86204,1.0625 0.0906,0 0.63357,-0.478125 1.2066,-1.0625 L 212.35465,32.5 211.27886,29.969617 C 207.66228,21.462941 201.77059,13.753198 194.3125,7.7677853 193.65937,7.2436263 193.125,6.6529956 193.125,6.4552727 c 0,-0.9468923 6.73033,5.1922343 10.05278,9.1697273 4.6779,5.600176 8.36043,12.393434 10.90947,20.125 2.23379,6.775377 2.66571,9.221022 2.64909,15 -0.049,17.029247 -6.20877,31.95865 -17.81067,43.16753 -3.14084,3.03445 -7.58306,6.49647 -8.00289,6.237 z m 23.20016,-35.209175 c -0.27079,-0.42212 -0.27819,-0.421463 -0.14182,0.0126 0.0791,0.25187 0.15693,0.64562 0.17288,0.875 0.0261,0.37572 0.0402,0.37447 0.14182,-0.0126 0.062,-0.236305 -0.0157,-0.630055 -0.17288,-0.875 z m 0.67284,-1.36723 c -0.0798,-0.199433 -0.13905,-0.140195 -0.15104,0.151042 -0.0109,0.26354 0.0482,0.411198 0.1313,0.328125 0.0831,-0.08308 0.092,-0.2987 0.0197,-0.479167 z M 210.79733,37.4375 c -0.0629,-0.240625 -0.11433,-0.04375 -0.11433,0.4375 0,0.48125 0.0515,0.678125 0.11433,0.4375 0.0629,-0.240625 0.0629,-0.634375 0,-0.875 z"
               id="path24138"
               transform="translate(237.36109,1143.1897)" />
            <path
               style="fill:#ffffff;fill-opacity:1;stroke-width:0.883883;stroke-linecap:round;stroke-linejoin:round;paint-order:fill markers stroke"
               d="m 101.11634,50.351246 c 0.14625,-2.642732 0.53825,-6.20803 0.91505,-8.322587 0.26419,-1.482647 0.32791,-1.635184 0.68301,-1.635184 0.38724,0 0.38903,0.01239 0.16016,1.104854 -0.44865,2.141501 -0.82346,5.377701 -0.93669,8.087534 -0.11263,2.695421 -0.12119,2.740988 -0.52588,2.798315 l -0.41138,0.05828 z"
               id="path24216"
               transform="translate(237.36109,1143.1897)" />
          </g>
        </g>
      </g>
      <text
         xml:space="preserve"
         style="font-style:normal;font-weight:normal;font-size:51.962px;line-height:1.25;font-family:sans-serif;fill:#ffffff;fill-opacity:1;stroke:none;stroke-width:1.29905"
         x="109.3285"
         y="1277.464"
         id="text14408"
         transform="scale(1.0415675,0.96009141)"><tspan
           sodipodi:role="line"
           id="tspan14406"
           style="fill:#ffffff;stroke-width:1.29905"
           x="109.3285"
           y="1277.464">LFFC</tspan></text>
    </g>
  </g>
</svg>
