<?xml version="1.0" encoding="UTF-8" standalone="no"?>
<!-- Created with Inkscape (http://www.inkscape.org/) -->

<svg
   width="109.59988mm"
   height="42.677273mm"
   viewBox="0 0 109.59987 42.677271"
   version="1.1"
   id="svg5"
   inkscape:version="1.1 (c68e22c387, 2021-05-23)"
   sodipodi:docname="Bola de futebol.svg"
   xmlns:inkscape="http://www.inkscape.org/namespaces/inkscape"
   xmlns:sodipodi="http://sodipodi.sourceforge.net/DTD/sodipodi-0.dtd"
   xmlns="http://www.w3.org/2000/svg"
   xmlns:svg="http://www.w3.org/2000/svg">
  <sodipodi:namedview
     id="namedview7"
     pagecolor="#ffffff"
     bordercolor="#999999"
     borderopacity="1"
     inkscape:pageshadow="0"
     inkscape:pageopacity="0"
     inkscape:pagecheckerboard="0"
     inkscape:document-units="mm"
     showgrid="false"
     inkscape:zoom="0.70710678"
     inkscape:cx="197.9899"
     inkscape:cy="19.091883"
     inkscape:window-width="1366"
     inkscape:window-height="705"
     inkscape:window-x="-8"
     inkscape:window-y="-8"
     inkscape:window-maximized="1"
     inkscape:current-layer="layer1"
     inkscape:snap-nodes="false"
     showguides="false" />
  <defs
     id="defs2">
    <rect
       x="-169.70563"
       y="-2.8284271"
       width="161.22035"
       height="168.99852"
       id="rect1810" />
  </defs>
  <g
     inkscape:label="Camada 1"
     inkscape:groupmode="layer"
     id="layer1"
     transform="translate(61.583571,-25.617777)">
    <path
       style="fill:none;fill-opacity:1;stroke:none;stroke-width:0.0477759;stroke-linecap:round;stroke-linejoin:round;paint-order:fill markers stroke"
       d="m 120.59657,74.90218 c -0.0715,-0.295149 -0.12956,-0.552733 -0.12908,-0.57241 4.8e-4,-0.01968 0.13197,-0.03578 0.29219,-0.03578 0.21373,0 0.2852,0.01591 0.26838,0.05973 -0.0126,0.03285 -0.0721,0.290438 -0.13232,0.57241 -0.0602,0.281971 -0.12285,0.512676 -0.1393,0.512676 -0.0164,0 -0.0884,-0.241486 -0.15987,-0.536634 z"
       id="path12147"
       transform="matrix(0.26458333,0,0,0.26458333,12.176609,27.924098)" />
    <path
       style="fill:none;fill-opacity:1;stroke:none;stroke-width:0.00844567;stroke-linecap:round;stroke-linejoin:round;stroke-opacity:1;paint-order:fill markers stroke"
       d="m 120.74968,75.587941 c -0.005,-0.01855 -0.0474,-0.191205 -0.0948,-0.383674 -0.0789,-0.320413 -0.22627,-0.884187 -0.2411,-0.922432 -0.006,-0.01423 -0.003,-0.01542 0.0226,-0.01104 0.0158,0.0027 0.0895,0.0096 0.16369,0.01525 0.12253,0.0094 0.14962,0.0088 0.29513,-0.007 0.0881,-0.0095 0.16173,-0.01593 0.16358,-0.01421 0.002,0.0017 -0.003,0.0345 -0.0114,0.07285 -0.03,0.142382 -0.21684,0.977408 -0.25233,1.127985 -0.0356,0.151104 -0.037,0.154941 -0.0454,0.12227 z"
       id="path12223"
       transform="matrix(0.26458333,0,0,0.26458333,12.176609,27.924098)" />
    <rect
       style="fill:none;fill-opacity:1;stroke:none;stroke-width:0.264999;stroke-linecap:round;stroke-linejoin:round;stroke-opacity:1;paint-order:fill markers stroke"
       id="rect13433"
       width="0.078548178"
       height="0.27285156"
       x="44.017559"
       y="47.31723" />
    <text
       xml:space="preserve"
       transform="matrix(0.26458333,0,0,0.26458333,-11.877119,25.617777)"
       id="1123"
       style="font-style:normal;font-weight:normal;font-size:40px;line-height:1.25;font-family:sans-serif;white-space:pre;shape-inside:url(#rect1810);fill:#000000;fill-opacity:1;stroke:none"
       inkscape:label="123" />
    <g
       id="g20958"
       transform="matrix(0.93800369,0,0,0.93800369,-0.46274909,3.1757075)">
      <path
         style="fill:#ffff00;stroke:#000000;stroke-width:0.264583px;stroke-linecap:butt;stroke-linejoin:miter;stroke-opacity:1"
         d="m 23.159533,32.464205 c -12.909119,0 -30.3083641,9.728609 -30.3083641,9.728609 11.711013,-3.77874 24.1542921,-8.004976 29.7470981,-8.044811 L -11.826049,48.553829 21.662822,39.760663 C 8.5382929,44.113128 -0.9963821,51.79903 -9.2068071,60.714593 5.3584919,51.145652 20.178441,41.198844 24.094975,47.431297 15.93542,51.95458 8.2896659,57.725664 2.5797789,68.198139 11.973992,59.468953 19.007878,54.342463 25.427295,55.668708 Z"
         id="path19431"
         sodipodi:nodetypes="cccccccccc" />
      <g
         id="g18996"
         transform="translate(2.8752434,-2.3910864)">
        <g
           id="g18708"
           style="fill:#ffffff;fill-opacity:1">
          <path
             style="fill:#ffffff;fill-opacity:1;stroke-width:5;stroke-linecap:round;stroke-linejoin:round;paint-order:fill markers stroke"
             id="path18455"
             sodipodi:type="arc"
             sodipodi:cx="28.731606"
             sodipodi:cy="44.311249"
             sodipodi:rx="16.307358"
             sodipodi:ry="16.097841"
             sodipodi:start="5.7655381"
             sodipodi:end="5.7635701"
             sodipodi:arc-type="slice"
             d="M 42.902468,36.345442 A 16.307358,16.097841 0 0 1 36.80806,58.296124 16.307358,16.097841 0 0 1 14.56869,52.290817 16.307358,16.097841 0 0 1 20.641215,30.334226 16.307358,16.097841 0 0 1 42.88656,36.317927 l -14.154954,7.993322 z" />
          <rect
             style="fill:#ffffff;fill-opacity:1;stroke-width:1.32292;stroke-linecap:round;stroke-linejoin:round;paint-order:fill markers stroke"
             id="rect18624"
             width="12.056826"
             height="6.4228373"
             x="30.829733"
             y="36.317928" />
        </g>
        <g
           id="g15697">
          <g
             id="g14457"
             transform="translate(0.181714,0.16661578)">
            <g
               id="g14426">
              <g
                 id="g5185"
                 transform="matrix(0.05138406,0,0,0.05138406,-2.2672961,26.535247)">
                <path
                   style="fill:none;stroke:#000000;stroke-width:5;stroke-linecap:butt;stroke-linejoin:miter;stroke-miterlimit:4;stroke-dasharray:none;stroke-opacity:1"
                   d="m 879.99997,247.99999 14.66667,-13.66666"
                   id="path1250" />
                <g
                   id="g5141">
                  <g
                     id="g4891">
                    <path
                       style="fill:none;stroke:#000000;stroke-width:5;stroke-linecap:butt;stroke-linejoin:miter;stroke-miterlimit:4;stroke-dasharray:none;stroke-opacity:1"
                       d="m 723.13805,77.495091 16.02422,-16.68391"
                       id="path1248" />
                    <g
                       id="g4678">
                      <path
                         style="fill:none;stroke:#000000;stroke-width:4.5736;stroke-linecap:butt;stroke-linejoin:miter;stroke-miterlimit:4;stroke-dasharray:none;stroke-opacity:1"
                         d="m 883.88429,379.83467 c 10.34314,7.35279 15.62072,25.3448 19.67268,45.911"
                         id="path1252"
                         sodipodi:nodetypes="cc" />
                      <g
                         id="g4661">
                        <path
                           style="fill:none;fill-opacity:1;stroke:#000000;stroke-width:5;stroke-linecap:butt;stroke-linejoin:miter;stroke-miterlimit:4;stroke-dasharray:none;stroke-opacity:1"
                           d="m 285.1036,362.85033 c 0,0 11.04504,-18.92597 17.17002,-25.2252 5.08327,-5.22788 20.39304,-14.95847 20.39304,-14.95847"
                           id="path1038"
                           sodipodi:nodetypes="csc" />
                        <g
                           id="g4646">
                          <g
                             id="g4417">
                            <path
                               style="fill:none;stroke:#000000;stroke-width:5;stroke-linecap:butt;stroke-linejoin:miter;stroke-miterlimit:4;stroke-dasharray:none;stroke-opacity:1"
                               d="M 605.33332,434.66665 C 555.54179,420.90262 519.2022,393.68666 478.66665,370.66666 l -1.33333,-134.66667 c 38.87463,-35.87757 79.98359,-56.11487 121.33333,-74.66666 l 118.66666,61.33333 c 8.7409,48.963 4.62471,94.71173 4,141.33333 z"
                               id="path1024"
                               sodipodi:nodetypes="ccccccc" />
                            <path
                               style="fill:none;stroke:#000000;stroke-width:5;stroke-linecap:butt;stroke-linejoin:miter;stroke-miterlimit:4;stroke-dasharray:none;stroke-opacity:1"
                               d="m 378.66666,209.33333 98.66666,26.66666 1.33333,134.66667 c -34.42444,14.82815 -65.118,32.14354 -91.99999,51.99999 -25.8995,-25.34255 -48.13993,-57.08845 -64,-99.99999 6.91829,-37.77778 26.46131,-75.55555 56,-113.33333 z"
                               id="path1026"
                               sodipodi:nodetypes="cccccc" />
                            <path
                               style="fill:none;stroke:#000000;stroke-width:5;stroke-linecap:butt;stroke-linejoin:miter;stroke-miterlimit:4;stroke-dasharray:none;stroke-opacity:1"
                               d="m 378.66666,209.33333 c 4.33846,-42.16072 9.16927,-78.4132 16,-90.66667 41.04291,-34.094626 77.20076,-51.091557 113.33333,-67.999995 l 3.99999,-13.333333"
                               id="path1028"
                               sodipodi:nodetypes="cccc" />
                            <path
                               style="fill:none;stroke:#000000;stroke-width:5;stroke-linecap:butt;stroke-linejoin:miter;stroke-miterlimit:4;stroke-dasharray:none;stroke-opacity:1"
                               d="m 507.99999,50.666665 c 62.7889,1.13111 77.73223,11.831331 105.33333,20 37.90846,-4.258283 74.4096,-1.479929 109.80473,6.828426 37.8054,31.006209 60.2982,62.482029 75.52859,98.504899 l -81.33333,46.66667 -118.66666,-61.33333 13.33333,-91.999999"
                               id="path1030"
                               sodipodi:nodetypes="ccccccc" />
                            <path
                               style="fill:none;stroke:#000000;stroke-width:5;stroke-linecap:butt;stroke-linejoin:miter;stroke-miterlimit:4;stroke-dasharray:none;stroke-opacity:1"
                               d="m 798.66664,175.99999 c 33.91708,21.08315 64.83499,43.45167 81.33333,72 4.95096,39.02576 12.61595,74.31974 4,132 -23.89047,23.05317 -51.31254,40.80895 -78.66666,58.66666 l -84,-74.66666 -115.99999,70.66666 16,121.33333 122.66666,-2.66666 c 24.16615,-33.7044 44.70939,-72.23933 61.33333,-116"
                               id="path1032"
                               sodipodi:nodetypes="ccccccccc" />
                            <path
                               style="fill:none;stroke:#000000;stroke-width:5;stroke-linecap:butt;stroke-linejoin:miter;stroke-miterlimit:4;stroke-dasharray:none;stroke-opacity:1"
                               d="m 765.33331,609.33332 -21.33333,-56"
                               id="path1034" />
                            <path
                               style="fill:none;stroke:#000000;stroke-width:5;stroke-linecap:butt;stroke-linejoin:miter;stroke-miterlimit:4;stroke-dasharray:none;stroke-opacity:1"
                               d="m 621.33332,555.99998 -100,45.33334 c -44.10036,-13.77599 -83.41984,-32.93045 -113.33333,-62.66667 -15.55556,11.72436 -31.11111,13.09229 -46.66667,10.66667"
                               id="path1036"
                               sodipodi:nodetypes="cccc" />
                            <path
                               style="fill:none;stroke:#000000;stroke-width:5;stroke-linecap:round;stroke-linejoin:round;stroke-miterlimit:4;stroke-dasharray:none;stroke-opacity:1;paint-order:fill markers stroke"
                               id="path1276"
                               sodipodi:type="arc"
                               sodipodi:cx="599.375"
                               sodipodi:cy="342.99969"
                               sodipodi:rx="315.09521"
                               sodipodi:ry="315.06357"
                               sodipodi:start="0"
                               sodipodi:end="6.2722595"
                               sodipodi:open="true"
                               sodipodi:arc-type="arc"
                               d="M 914.47021,342.99969 A 315.09521,315.06357 0 0 1 600.23567,658.06209 315.09521,315.06357 0 0 1 284.28449,344.72085 315.09521,315.06357 0 0 1 596.79303,27.946705 315.09521,315.06357 0 0 1 914.45141,339.55744" />
                            <path
                               style="fill:none;stroke:#000000;stroke-width:5;stroke-linecap:butt;stroke-linejoin:miter;stroke-miterlimit:4;stroke-dasharray:none;stroke-opacity:1"
                               d="m 386.66666,422.66665 c -2.49996,34.54764 -0.79802,70.89609 21.33333,116"
                               id="path3190"
                               sodipodi:nodetypes="cc" />
                          </g>
                          <path
                             style="fill:none;stroke:#000000;stroke-width:5;stroke-linecap:butt;stroke-linejoin:miter;stroke-miterlimit:4;stroke-dasharray:none;stroke-opacity:1"
                             d="m 395.79303,118.98848 -18.48586,-0.34413"
                             id="path4553"
                             sodipodi:nodetypes="cc" />
                        </g>
                      </g>
                    </g>
                  </g>
                  <path
                     style="fill:none;stroke:#000000;stroke-width:5;stroke-linecap:butt;stroke-linejoin:miter;stroke-miterlimit:4;stroke-dasharray:none;stroke-opacity:1"
                     d="m 521.33332,601.33332 c 1.95202,13.30592 8.8126,29.41672 29.33333,53.33333"
                     id="path4945"
                     sodipodi:nodetypes="cc" />
                </g>
              </g>
              <path
                 style="fill:#000000;fill-opacity:1;stroke:#000000;stroke-width:0.968908;stroke-linecap:round;stroke-linejoin:round;stroke-miterlimit:4;stroke-dasharray:none;stroke-opacity:1;paint-order:fill markers stroke"
                 d="m 16.711057,46.860484 c -0.480749,-0.60812 -1.171476,-1.695741 -1.53495,-2.416931 l -0.660861,-1.31126 0.295957,-1.014116 c 0.307639,-1.054149 1.265907,-2.902989 2.041876,-3.939506 l 0.449186,-0.600012 2.325377,0.613886 2.325376,0.613886 0.0529,3.300061 0.0529,3.300059 -1.215586,0.60252 c -0.668573,0.331381 -1.675148,0.907288 -2.236834,1.279797 l -1.021248,0.677283 z"
                 id="path5263"
                 sodipodi:nodetypes="cscssccccccccc" />
              <path
                 style="fill:#000000;fill-opacity:1;stroke:#000000;stroke-width:0.685119;stroke-linecap:round;stroke-linejoin:round;stroke-miterlimit:4;stroke-dasharray:none;stroke-opacity:1;paint-order:fill markers stroke"
                 d="m 31.714695,36.258835 c -1.507266,-0.785879 -2.797717,-1.449019 -2.86767,-1.473644 -0.119319,-0.042 -0.05228,-0.696528 0.357315,-3.488355 l 0.145746,-0.993425 1.661889,0.0048 c 0.914039,0.0026 2.155176,0.0914 2.758082,0.197274 l 1.096193,0.192494 1.164705,1.217172 c 1.00284,1.048014 2.074854,2.564635 2.364992,3.345849 0.06781,0.182586 -0.309959,0.459085 -1.825302,1.335986 -1.050944,0.608162 -1.956857,1.102372 -2.013138,1.098244 -0.05628,-0.0041 -1.335546,-0.650497 -2.842812,-1.436376 z"
                 id="path5450"
                 sodipodi:nodetypes="cssccscsssccc" />
              <path
                 style="fill:#000000;fill-opacity:1;stroke:#000000;stroke-width:0.04282;stroke-linecap:round;stroke-linejoin:round;stroke-miterlimit:4;stroke-dasharray:none;stroke-opacity:1;paint-order:fill markers stroke"
                 d="m 17.697552,32.493704 -0.269243,0.03844 0.264583,-0.317019 c 0.03437,-0.04118 -0.06878,0.161168 -0.04074,0.135938 0.605931,-0.545563 1.004246,-0.868221 1.576208,-1.276821 1.308889,-0.935047 2.843034,-1.704123 4.387429,-2.199444 l 0.173936,-0.05579 -0.0051,0.02318 c -0.0028,0.01275 -0.01757,0.06324 -0.03283,0.112205 l -0.02774,0.08903 -0.239591,0.112483 c -0.999485,0.469236 -1.725899,0.833703 -2.322111,1.165084 -1.113172,0.618713 -2.122863,1.300669 -3.072148,2.074963 l -0.127595,0.104073 -0.09507,-0.0018 c -0.05229,-9.71e-4 -0.128791,-0.003 -0.170005,-0.0046 z"
                 id="path5489"
                 sodipodi:nodetypes="ccscscccccssscccc" />
              <path
                 style="fill:#000000;fill-opacity:1;stroke:#000000;stroke-width:0.968908;stroke-linecap:round;stroke-linejoin:round;stroke-miterlimit:4;stroke-dasharray:none;stroke-opacity:1;paint-order:fill markers stroke"
                 d="m 43.909567,46.359397 c -0.347135,-0.455354 -0.05603,-1.55119 -0.103876,-3.256427 -0.04508,-1.606574 -0.161982,-3.413774 -0.209948,-3.666519 -0.0929,-0.489527 -0.225796,0.131365 -0.102392,0.08833 0.233602,-0.08148 0.691958,1.270158 0.942543,3.199424 0.150416,1.158053 -0.195434,3.857345 -0.421755,3.856111 -0.07501,-5.13e-4 0.503567,0.57681 -0.104572,-0.220915 z"
                 id="path5528"
                 sodipodi:nodetypes="sssssss" />
              <path
                 style="fill:#000000;fill-opacity:1;stroke:#000000;stroke-width:0.968908;stroke-linecap:round;stroke-linejoin:round;stroke-miterlimit:4;stroke-dasharray:none;stroke-opacity:1;paint-order:fill markers stroke"
                 d="m 29.525014,52.247162 c -0.181534,-1.439195 -0.366666,-2.747521 -0.411405,-2.907392 -0.05642,-0.201621 0.770787,-0.810147 2.700047,-1.986261 1.529764,-0.932575 2.84416,-1.695587 2.920878,-1.695587 0.263095,0 3.980577,3.382079 3.980577,3.621441 0,0.363917 -2.070864,4.34909 -2.567207,4.940331 -0.433049,0.515849 -0.458918,0.520325 -3.364617,0.582017 l -2.928212,0.06217 z"
                 id="path5567"
                 sodipodi:nodetypes="ssssssscs" />
              <path
                 style="fill:#000000;fill-opacity:1;stroke:#000000;stroke-width:0.242227;stroke-linecap:round;stroke-linejoin:round;stroke-miterlimit:4;stroke-dasharray:none;stroke-opacity:1;paint-order:fill markers stroke"
                 d="m 25.005076,59.805824 c -1.291946,-0.29998 -2.337796,-0.67366 -3.536511,-1.26359 -1.608841,-0.791767 -2.941084,-1.739464 -4.211273,-2.995701 l -0.536372,-0.530479 0.479142,-0.06313 c 0.570602,-0.07519 0.725902,-0.121385 1.153007,-0.342979 l 0.324124,-0.168164 0.451002,0.380735 c 1.256049,1.060351 2.784232,1.88952 4.673245,2.535629 l 0.588842,0.201405 0.03292,0.177521 c 0.08147,0.439391 0.443273,1.156676 0.915262,1.814531 0.147377,0.205413 0.241659,0.371954 0.209514,0.370093 -0.03214,-0.0018 -0.276449,-0.054 -0.542898,-0.115871 z"
                 id="path5643"
                 sodipodi:nodetypes="sssccscsscsscss" />
            </g>
          </g>
          <path
             style="fill:#000000;fill-opacity:1;stroke:none;stroke-width:1.00157;stroke-linecap:round;stroke-linejoin:round;stroke-opacity:1;paint-order:fill markers stroke"
             id="path13459"
             sodipodi:type="arc"
             sodipodi:cx="44.028072"
             sodipodi:cy="47.251942"
             sodipodi:rx="0.4602237"
             sodipodi:ry="3.2836812"
             sodipodi:start="0"
             sodipodi:end="0.33700585"
             sodipodi:arc-type="slice"
             d="m 44.488296,47.251942 a 0.4602237,3.2836812 0 0 1 -0.02589,1.085791 l -0.434336,-1.085791 z" />
        </g>
      </g>
    </g>
    <text
       xml:space="preserve"
       style="font-style:normal;font-weight:normal;font-size:17.7718px;line-height:1.25;font-family:sans-serif;fill:#00ff00;fill-opacity:1;stroke:none;stroke-width:0.444296"
       x="-57.30505"
       y="54.886757"
       id="text14408"
       transform="scale(1.0415675,0.96009141)"><tspan
         sodipodi:role="line"
         id="tspan14406"
         style="fill:#00ff00;stroke-width:0.444296"
         x="-57.30505"
         y="54.886757">LFFC</tspan></text>
  </g>
</svg>
